<svg width="15" height="15" viewBox="0 0 15 15" fill="none" xmlns="http://www.w3.org/2000/svg">
<path d="M7.5 6.31998H14V1.81998C14.0007 1.7493 13.9861 1.67929 13.9573 1.61477C13.9284 1.55025 13.8859 1.49274 13.8327 1.44619C13.7795 1.39964 13.7169 1.36515 13.6491 1.34509C13.5813 1.32503 13.51 1.31988 13.44 1.32998L7.5 2.03998V6.31998Z" stroke="#000001" stroke-linecap="round" stroke-linejoin="round"/>
<path d="M5.50001 6.31996V2.20996L1.44001 2.70996C1.31806 2.7247 1.2058 2.78382 1.12464 2.87604C1.04349 2.96825 0.999126 3.08712 1.00001 3.20996V6.31996H5.50001Z" stroke="#000001" stroke-linecap="round" stroke-linejoin="round"/>
<path d="M5.5 8.31995H1V11.3199C1.00047 11.4393 1.04275 11.5546 1.11949 11.646C1.19623 11.7373 1.30256 11.7989 1.42 11.8199L5.5 12.4999V8.31995Z" stroke="#000001" stroke-linecap="round" stroke-linejoin="round"/>
<path d="M7.5 8.31995V12.7199L13.42 13.6699C13.4912 13.6815 13.5641 13.6775 13.6336 13.6582C13.7031 13.639 13.7676 13.6049 13.8227 13.5583C13.8778 13.5118 13.9222 13.4539 13.9528 13.3886C13.9834 13.3232 13.9995 13.2521 14 13.1799V8.31995H7.5Z" stroke="#000001" stroke-linecap="round" stroke-linejoin="round"/>
</svg>
